PathFileType	4	(X/Y/Z)	C:\Users\86182\Documents\cortex\Trimmed_M1_L10.trc
DataRate	CameraRate	NumFrames	NumMarkers	Units	OrigDataRate	OrigDataStartFrame	OrigNumFrames
100.00	100.00	       140	2	mm	100.00	541	       901
Frame#	Time	gripper			box			
		X1	Y1	Z1	X2	Y2	Z2	

541	5.400	199.16571	195.62056	292.90637	200.85030	194.56169	156.32333	
542	5.410	199.13339	195.59572	292.94101	200.84763	194.54759	156.34583	
543	5.420	199.16254	195.60939	292.92169	200.85710	194.55637	156.34674	
544	5.430	199.16176	195.60823	292.92346	200.84785	194.56363	156.31490	
545	5.440	199.15170	195.60234	292.92828	200.87312	194.56071	156.36882	
546	5.450	199.15686	195.60751	292.92609	200.86256	194.56488	156.34050	
547	5.460	199.20862	195.61752	292.89783	200.84309	194.56860	156.29610	
548	5.470	199.19762	195.61926	292.93433	200.85986	194.55536	156.35399	
549	5.480	199.20137	195.61533	292.90405	200.84848	194.57863	156.28677	
550	5.490	199.18027	195.62479	292.89639	200.85588	194.57066	156.31648	
551	5.500	199.19115	195.61253	292.90906	200.85349	194.56480	156.32333	
552	5.510	199.18678	195.62596	292.89343	200.85461	194.57664	156.30237	
553	5.520	199.19012	195.59872	292.92908	200.85489	194.56900	156.34886	
554	5.530	199.17380	195.62599	292.89664	200.82245	194.58643	156.29912	
555	5.540	199.17139	195.62244	292.90198	200.84985	194.56226	156.32140	
556	5.550	199.16008	195.60904	292.92300	200.85570	194.56705	156.32318	
557	5.560	199.15913	195.61748	292.91260	200.84047	194.55499	156.31769	
558	5.570	199.15263	195.60490	292.93857	200.84836	194.55339	156.36694	
559	5.580	199.17845	195.62009	292.90341	200.85223	194.55560	156.33894	
560	5.590	199.16580	195.61420	292.91449	200.85844	194.55505	156.35185	
561	5.600	199.17757	195.59035	292.95261	200.85159	194.54480	156.35884	
562	5.610	199.19228	195.62122	292.89838	200.85622	194.57588	156.30688	
563	5.620	199.16580	195.61420	292.91449	200.85181	194.54842	156.35220	
564	5.630	199.17221	195.62364	292.90021	200.86197	194.57124	156.32693	
565	5.640	199.17061	195.62128	292.90378	200.86383	194.57416	156.32481	
566	5.650	199.17918	195.61897	292.94208	200.86469	194.55453	156.36482	
567	5.660	199.17252	195.61964	292.91660	200.81627	194.57637	156.32220	
568	5.670	199.19493	195.61073	292.93326	200.86024	194.55009	156.36502	
569	5.680	199.19525	195.62816	292.92139	200.82060	194.56270	156.38768	
570	5.690	199.19550	195.61905	292.90329	200.87300	194.57426	156.34207	
571	5.700	199.18230	195.61238	292.94614	200.85240	194.54675	156.35660	
572	5.710	199.16014	195.60585	292.92706	200.84245	194.55362	156.32414	
573	5.720	199.18190	195.61647	292.90680	200.85294	194.55243	156.34648	
574	5.730	199.16176	195.60823	292.92346	200.85478	194.54012	156.37411	
575	5.740	199.16899	195.61890	292.90735	200.85252	194.56860	156.31409	
576	5.750	199.16580	195.61420	292.91449	200.84828	194.57086	156.30156	
577	5.760	199.16095	195.60704	292.92526	200.85023	194.55699	156.33243	
578	5.770	199.17380	195.62599	292.89664	200.82596	194.56323	156.32037	
579	5.780	199.14377	195.60777	292.93030	200.85468	194.56148	156.33212	
580	5.790	199.16661	195.61539	292.91269	200.84923	194.55144	156.34134	
581	5.800	199.17445	195.61418	292.91232	200.86810	194.57504	156.33122	
582	5.810	199.17627	195.61971	292.94601	200.85442	194.54538	156.36310	
583	5.820	199.17270	195.61723	292.90732	200.86047	194.55370	156.35838	
584	5.830	199.20380	195.61127	292.91953	200.85623	194.55284	156.35196	
585	5.840	199.16641	195.60776	292.94125	200.86061	194.54478	156.37608	
586	5.850	199.17162	195.58649	292.93375	200.86237	194.56595	156.33804	
587	5.860	199.18890	195.60039	292.93460	200.84543	194.54538	156.34596	
588	5.870	199.17517	195.60757	292.91782	200.86694	194.55678	156.36472	
589	5.880	199.18336	195.61267	292.92642	200.84961	194.54620	156.35233	
590	5.890	199.17868	195.60924	292.94580	200.85771	194.53177	156.39603	
591	5.900	199.15619	195.59708	292.93365	200.85100	194.54648	156.35446	
592	5.910	199.16670	195.59236	292.93747	200.86188	194.55397	156.36052	
593	5.920	199.18597	195.62448	292.94421	200.86530	194.55287	156.36925	
594	5.930	199.15770	195.60225	292.93250	200.83810	194.54922	156.32445	
595	5.940	199.16031	195.59671	292.93921	200.85123	194.55008	156.34782	
596	5.950	199.15933	195.60466	292.92886	200.84464	194.55583	156.32399	
597	5.960	199.16661	195.61539	292.91269	200.84183	194.54286	156.34399	
598	5.970	199.17131	195.61635	292.92511	200.84502	194.55060	156.33498	
599	5.980	199.16176	195.60823	292.92346	200.83334	194.53767	156.33794	
600	5.990	199.16176	195.60823	292.92346	200.84567	194.56142	156.31506	
601	6.000	199.18610	195.59113	292.94699	200.84842	194.54950	156.34360	
602	6.010	199.18695	195.60641	292.91412	200.84923	194.55144	156.34134	
603	6.020	199.17995	195.58562	292.93857	200.85564	194.55450	156.34758	
604	6.030	199.21661	195.58928	292.93198	200.84799	194.54231	156.35683	
605	6.040	199.23094	195.59021	292.92917	200.85556	194.54202	156.37187	
606	6.050	199.21725	195.60339	292.91754	200.85934	194.55258	156.35840	
607	6.060	199.23146	195.60207	292.91254	200.85081	194.55533	156.33681	
608	6.070	199.20003	195.60886	292.92337	200.86598	194.56377	156.34921	
609	6.080	199.22197	195.60077	292.91968	200.85263	194.55035	156.34996	
610	6.090	199.18510	195.61050	292.91373	200.86667	194.57474	156.32907	
611	6.100	199.21823	195.61119	292.91547	200.86620	194.56740	156.34250	
612	6.110	199.19955	195.62114	292.89560	200.84982	194.56180	156.32222	
613	6.120	199.19412	195.60574	292.91776	200.84743	194.55641	156.32820	
614	6.130	199.16461	195.59003	292.93063	200.85416	194.54175	156.36974	
615	6.140	199.14433	195.59061	292.93134	200.83966	194.54068	156.34413	
616	6.150	199.18079	195.58684	292.93677	200.85197	194.53955	156.36983	
617	6.160	199.12773	195.57024	292.95258	200.85281	194.55392	156.34332	
618	6.170	199.17775	195.58452	292.94116	200.84525	194.55420	156.32835	
619	6.180	199.11565	195.55731	292.96069	200.83946	194.53712	156.35069	
620	6.190	199.15991	195.58476	292.94330	200.84306	194.55199	156.32851	
621	6.200	199.17479	195.59465	292.92435	200.84209	194.55890	156.31314	
622	6.210	199.15205	195.55641	292.96091	200.86047	194.55370	156.35838	
623	6.220	199.16499	195.61301	292.91629	200.84706	194.56169	156.31717	
624	6.230	199.19379	195.61058	292.91223	200.84906	194.56032	156.32365	
625	6.240	199.18617	195.61160	292.94647	200.84445	194.55226	156.33061	
626	6.250	199.17445	195.61418	292.91232	200.84206	194.54646	156.33737	
627	6.260	199.22501	195.60019	292.92441	200.86569	194.54759	156.38029	
628	6.270	199.16475	195.59990	292.93390	200.86591	194.55119	156.37366	
629	6.280	199.20320	195.61052	292.90930	200.83412	194.53958	156.33571	
630	6.290	199.19302	195.59627	292.93433	200.85072	194.53046	156.38527	
631	6.300	199.18900	195.58922	292.94400	200.84183	194.54286	156.34399	
632	6.310	199.19518	195.60950	292.91403	200.84981	194.54977	156.34570	
633	6.320	199.18262	195.59349	292.93668	200.84520	194.54176	156.35257	
634	6.330	199.17700	195.60120	292.92346	200.84666	194.56696	156.30614	
635	6.340	199.17926	195.60886	292.92633	200.83434	194.53085	156.35318	
636	6.350	199.14133	195.60742	292.93161	200.85019	194.54453	156.35670	
637	6.360	199.17722	195.61183	292.91479	200.84007	194.54784	156.33092	
638	6.370	199.16872	195.60274	292.93655	200.84737	194.54395	156.35246	
639	6.380	199.17075	195.60425	292.92380	200.84103	194.54095	156.34624	
640	6.390	199.17833	195.60707	292.92087	200.86427	194.54732	156.37814	
641	6.400	199.17155	195.60350	292.92737	200.85181	194.54842	156.35220	
642	6.410	199.16499	195.61301	292.91629	200.85750	194.56206	156.33638	
643	6.420	199.17487	195.60944	292.91846	200.85217	194.54314	156.36322	
644	6.430	199.21983	195.60811	292.90851	200.84650	194.55244	156.33417	
645	6.440	199.16980	195.62009	292.90555	200.85750	194.56206	156.33638	
646	6.450	199.19060	195.60587	292.91937	200.85234	194.53432	156.38081	
647	6.460	199.21594	195.61641	292.89822	200.86127	194.55565	156.35612	
648	6.470	199.18719	195.58675	292.93481	200.85213	194.53073	156.38741	
649	6.480	199.19119	195.61531	292.90631	200.84906	194.56032	156.32365	
650	6.490	199.19218	195.60822	292.91580	200.85143	194.55365	156.34120	
651	6.500	199.18349	195.60826	292.91800	200.85857	194.53375	156.39378	
652	6.510	199.18121	195.61774	292.90588	200.84567	194.56142	156.31506	
653	6.520	199.19142	195.60706	292.91760	200.85558	194.56967	156.31783	
654	6.530	199.16747	195.60397	292.92819	200.85623	194.55284	156.35196	
655	6.540	199.17221	195.62364	292.90021	200.84288	194.56084	156.31087	
656	6.550	199.16338	195.61061	292.91986	200.85402	194.55063	156.35208	
657	6.560	199.17310	195.61227	292.91562	200.83905	194.54231	156.33977	
658	6.570	199.16980	195.62009	292.90555	200.84828	194.57086	156.30156	
659	6.580	199.16661	195.61539	292.91269	200.85197	194.53955	156.36983	
660	6.590	199.16827	195.61943	292.90283	200.84639	194.53847	156.36131	
661	6.600	199.16934	195.61301	292.91516	200.84169	194.55637	156.31737	
662	6.610	199.15770	195.60225	292.93250	200.84203	194.53409	156.36153	
663	6.620	199.18076	195.61064	292.91550	200.83849	194.54399	156.33542	
664	6.630	199.15919	195.60336	292.94174	200.85385	194.55951	156.33440	
665	6.640	199.15770	195.60225	292.93250	200.85896	194.54091	156.38055	
666	6.650	199.18073	195.60100	292.92038	200.85773	194.57036	156.32057	
667	6.660	199.20999	195.60002	292.91913	200.85201	194.55199	156.34558	
668	6.670	199.19218	195.60822	292.91580	200.85623	194.55284	156.35196	
669	6.680	199.18153	195.61180	292.91370	200.84187	194.55530	156.31978	
670	6.690	199.16014	195.60585	292.92706	200.85362	194.55588	156.34106	
671	6.700	199.17900	195.62830	292.89209	200.84395	194.56792	156.29907	
672	6.710	199.15439	195.60716	292.92740	200.84703	194.54922	156.34148	
673	6.720	199.15427	195.60052	292.92734	200.84431	194.54562	156.34334	
674	6.730	199.17139	195.62244	292.90198	200.83492	194.54150	156.33347	
675	6.740	199.16014	195.60585	292.92706	200.85944	194.54816	156.36728	
676	6.750	199.16254	195.60939	292.92169	200.84447	194.56471	156.30632	
677	6.760	199.18394	195.61536	292.90836	200.84164	194.55168	156.32640	
678	6.770	199.14949	195.60324	292.93411	200.84402	194.54507	156.34386	
679	6.780	199.14622	195.60812	292.92902	200.84525	194.55420	156.32835	
680	6.790	199.15337	195.60153	292.92877	200.84459	194.54340	156.34822	
